<svg width="159" height="53" viewBox="0 0 159 53" fill="none" xmlns="http://www.w3.org/2000/svg">
<path fill-rule="evenodd" clip-rule="evenodd" d="M7.03917 0H153.087C155.216 0 155.988 0.221591 156.766 0.63828C157.535 1.04541 158.164 1.67438 158.572 2.44353C158.988 3.22151 159.21 3.99346 159.21 6.12267V46.4126C159.21 48.5418 158.988 49.3137 158.572 50.0917C158.164 50.8608 157.535 51.4898 156.766 51.8969C155.988 52.3136 155.216 52.5352 153.087 52.5352H7.03917C4.90997 52.5352 4.13801 52.3136 3.36003 51.8969C2.59066 51.4899 1.96147 50.8609 1.55418 50.0917C1.1387 49.3137 0.916504 48.5418 0.916504 46.4126V6.12267C0.916504 3.99346 1.1381 3.22151 1.55478 2.44353C1.96182 1.67416 2.5908 1.04497 3.36003 0.637677C4.13801 0.222796 4.90997 0 7.03917 0Z" fill="white"/>
<path d="M36.3868 24.9833C36.3555 21.5552 39.2621 19.8879 39.3951 19.8102C37.7489 17.4666 35.197 17.1469 34.301 17.121C32.1573 16.9006 30.0787 18.3735 28.987 18.3735C27.8736 18.3735 26.193 17.1421 24.3805 17.1788C22.0496 17.2137 19.868 18.5312 18.6721 20.5779C16.2033 24.7508 18.0447 30.8831 20.4099 34.2558C21.5926 35.9087 22.9751 37.7519 24.7852 37.6874C26.5555 37.617 27.2167 36.5861 29.3531 36.5861C31.4702 36.5861 32.0911 37.6874 33.9367 37.6459C35.8364 37.617 37.0329 35.9864 38.1746 34.3196C39.5415 32.4271 40.0912 30.5616 40.1129 30.4659C40.0696 30.4508 36.4241 29.0917 36.3868 24.9839V24.9833ZM32.9004 14.9021C33.853 13.7399 34.5045 12.1581 34.3232 10.5527C32.9449 10.6129 31.2222 11.4837 30.2286 12.6205C29.3513 13.6225 28.5667 15.2652 28.769 16.8097C30.3171 16.9223 31.9068 16.0468 32.9004 14.9021ZM60.2801 11.0796H62.7104C63.4956 11.0796 64.1821 11.2392 64.7692 11.5577C65.3425 11.8624 65.8132 12.3295 66.1222 12.9005C66.4371 13.4768 66.5949 14.1367 66.5949 14.8792C66.5949 15.6222 66.4371 16.2822 66.1222 16.8585C65.8132 17.4295 65.3425 17.8966 64.7692 18.2013C64.1821 18.5198 63.4956 18.6788 62.7098 18.6788H60.2795V11.0796H60.2801ZM62.6887 17.5431C63.5378 17.5431 64.2013 17.3083 64.6788 16.8374C65.1563 16.3671 65.3954 15.7144 65.3954 14.8792C65.3954 14.0518 65.1563 13.4009 64.6788 12.9264C64.2013 12.4525 63.5378 12.2159 62.6887 12.2159H61.4682V17.5431H62.6887ZM70.1391 18.8486C69.5948 18.8486 69.1065 18.7233 68.6747 18.4722C68.2493 18.2272 67.9003 17.8689 67.6667 17.4371C67.4259 16.9988 67.3054 16.5098 67.3054 15.9727C67.3054 15.435 67.4259 14.9466 67.6667 14.5077C67.9004 14.0761 68.2494 13.718 68.6747 13.4732C69.1065 13.2221 69.5948 13.0962 70.1391 13.0962C70.6841 13.0962 71.1724 13.2239 71.6042 13.4786C72.029 13.7264 72.3777 14.0861 72.6122 14.5185C72.853 14.9575 72.9735 15.4416 72.9735 15.9727C72.9735 16.5104 72.853 16.9988 72.6122 17.4371C72.3786 17.8689 72.0296 18.2272 71.6042 18.4722C71.1724 18.7233 70.6841 18.8486 70.1391 18.8486ZM70.1391 17.7767C70.4366 17.7767 70.7124 17.7045 70.9671 17.5594C71.2218 17.4142 71.4253 17.2053 71.5777 16.9331C71.7294 16.6603 71.8059 16.3406 71.8059 15.9727C71.8059 15.6048 71.7294 15.2862 71.5771 15.0171C71.4346 14.7583 71.2235 14.5437 70.9671 14.3969C70.7152 14.2524 70.4295 14.1772 70.1391 14.1789C69.8423 14.1789 69.5665 14.2511 69.3118 14.3963C69.0571 14.5414 68.8536 14.7485 68.7012 15.0171C68.5495 15.2862 68.473 15.6048 68.473 15.9727C68.473 16.34 68.5495 16.6603 68.7018 16.9331C68.8536 17.2053 69.0571 17.4142 69.3118 17.5594C69.5665 17.7039 69.8417 17.7767 70.1391 17.7767ZM73.3342 13.2666H74.5969L75.6904 17.1403H75.7325L76.9531 13.266H78.1526L79.3623 17.1403H79.4044L80.4979 13.266H81.7396L80.0096 18.6794H78.7788L77.5366 14.7943H77.5047L76.2738 18.6788H75.0635L73.3342 13.266V13.2666ZM82.4929 13.2666H83.6074V13.9772H83.6604C83.8164 13.7225 84.0482 13.5123 84.3559 13.3455C84.6569 13.181 84.9945 13.0953 85.3374 13.0962C85.9956 13.0962 86.496 13.2889 86.8392 13.6743C87.1824 14.0603 87.354 14.5859 87.354 15.2507V18.6788H86.1865V15.4103C86.1865 14.9858 86.0823 14.6745 85.8733 14.4763C85.6644 14.2776 85.3766 14.1789 85.0086 14.1789C84.7467 14.1789 84.5131 14.2511 84.3077 14.3963C84.103 14.5414 83.9434 14.7341 83.8302 14.9743C83.717 15.2152 83.6604 15.4741 83.6604 15.7499V18.6788H82.4929V13.266V13.2666ZM88.6697 11.0796H89.8379V18.6788H88.6697V11.0796ZM93.6898 18.8486C93.1449 18.8486 92.6572 18.7233 92.2254 18.4722C91.7998 18.2273 91.4506 17.869 91.2168 17.4371C90.9766 16.9988 90.8561 16.5098 90.8561 15.9727C90.8561 15.435 90.9766 14.9466 91.2174 14.5077C91.4511 14.0761 91.8001 13.718 92.2254 13.4732C92.6572 13.2221 93.1449 13.0962 93.6898 13.0962C94.2348 13.0962 94.7231 13.2239 95.1549 13.4786C95.5797 13.7264 95.9284 14.0861 96.1629 14.5185C96.4037 14.9575 96.5242 15.4416 96.5242 15.9727C96.5242 16.5104 96.4037 16.9988 96.1629 17.4371C95.9293 17.8689 95.5803 18.2272 95.1549 18.4722C94.7231 18.7233 94.2348 18.8486 93.6898 18.8486ZM93.6898 17.7767C93.9873 17.7767 94.2631 17.7045 94.5178 17.5594C94.7725 17.4142 94.9754 17.2053 95.1278 16.9331C95.2801 16.6603 95.3566 16.3406 95.3566 15.9727C95.3566 15.6048 95.2801 15.2862 95.1278 15.0171C94.9853 14.7583 94.7742 14.5437 94.5178 14.3969C94.2659 14.2524 93.9802 14.1772 93.6898 14.1789C93.393 14.1789 93.1166 14.2511 92.8619 14.3963C92.6072 14.5414 92.4043 14.7485 92.2519 15.0171C92.0996 15.2862 92.0237 15.6048 92.0237 15.9727C92.0237 16.34 92.0996 16.6603 92.2519 16.9331C92.4043 17.2053 92.6072 17.4142 92.8619 17.5594C93.1166 17.7039 93.393 17.7767 93.6898 17.7767ZM99.2935 18.8486C98.9045 18.8486 98.5576 18.7727 98.2535 18.6203C97.9595 18.4772 97.7128 18.2525 97.543 17.973C97.3711 17.6865 97.2826 17.3576 97.2877 17.0234C97.2877 16.464 97.4985 16.0221 97.9194 15.6963C98.3409 15.3711 98.8726 15.2086 99.5169 15.2086C99.8348 15.2086 100.121 15.2387 100.376 15.2989C100.631 15.3591 100.833 15.4241 100.981 15.4952V15.2188C100.981 14.8864 100.857 14.616 100.61 14.4071C100.362 14.1982 100.044 14.094 99.6548 14.094C99.3784 14.094 99.1188 14.1542 98.8744 14.2746C98.6387 14.3878 98.4359 14.5594 98.2855 14.7732L97.4683 14.147C97.7092 13.8146 98.0199 13.5563 98.4017 13.3726C98.784 13.1883 99.2086 13.0962 99.6758 13.0962C100.461 13.0962 101.066 13.2889 101.491 13.6743C101.915 14.0603 102.127 14.6034 102.127 15.3037V18.6788H100.981V18.0314H100.928C100.772 18.2651 100.553 18.4596 100.27 18.6155C99.9871 18.7709 99.662 18.8486 99.2935 18.8486ZM99.4952 17.8827C99.7782 17.8827 100.033 17.8159 100.26 17.681C100.486 17.5467 100.663 17.3667 100.79 17.1403C100.917 16.9169 100.983 16.6643 100.981 16.4074C100.802 16.3091 100.612 16.2342 100.413 16.1846C100.193 16.1277 99.9666 16.0993 99.7391 16.1003C99.3007 16.1003 98.9791 16.1865 98.7738 16.3599C98.5685 16.5333 98.4661 16.7579 98.4661 17.0343C98.4661 17.2812 98.5612 17.4847 98.7527 17.6443C98.9436 17.8032 99.1911 17.8827 99.4952 17.8827ZM105.661 18.8486C105.173 18.8486 104.731 18.7251 104.335 18.477C103.936 18.2262 103.612 17.8727 103.396 17.4534C103.166 17.018 103.051 16.5243 103.051 15.9721C103.051 15.4205 103.165 14.9274 103.396 14.492C103.612 14.0727 103.936 13.7191 104.335 13.4683C104.733 13.2201 105.193 13.0909 105.662 13.0962C106.044 13.0962 106.387 13.1811 106.691 13.3509C106.996 13.5207 107.226 13.7297 107.381 13.9772H107.434L107.381 13.213V11.0796H108.549V18.6788H107.435V17.9785H107.381C107.226 18.2193 106.996 18.424 106.691 18.5939C106.376 18.7665 106.021 18.8543 105.661 18.8486ZM105.832 17.7767C106.115 17.7767 106.378 17.7027 106.622 17.5539C106.866 17.4052 107.062 17.1926 107.211 16.9169C107.36 16.6411 107.434 16.3268 107.434 15.9727C107.434 15.6186 107.36 15.3055 107.211 15.0333C107.075 14.7739 106.871 14.5558 106.622 14.4017C106.383 14.2557 106.109 14.1784 105.829 14.1784C105.549 14.1784 105.274 14.2557 105.036 14.4017C104.784 14.5545 104.578 14.7729 104.441 15.0333C104.293 15.3055 104.218 15.6186 104.218 15.9727C104.218 16.3262 104.293 16.6411 104.441 16.9169C104.59 17.1933 104.788 17.4052 105.036 17.5539C105.283 17.7027 105.549 17.7767 105.832 17.7767ZM114.927 18.8486C114.382 18.8486 113.894 18.7233 113.462 18.4722C113.037 18.2272 112.688 17.8689 112.454 17.4371C112.213 16.9988 112.093 16.5098 112.093 15.9727C112.093 15.435 112.213 14.9466 112.454 14.5077C112.688 14.0761 113.037 13.718 113.462 13.4732C113.894 13.2221 114.382 13.0962 114.927 13.0962C115.471 13.0962 115.96 13.2239 116.392 13.4786C116.816 13.7264 117.165 14.0861 117.4 14.5185C117.64 14.9575 117.761 15.4416 117.761 15.9727C117.761 16.5104 117.64 16.9988 117.4 17.4371C117.166 17.8689 116.817 18.2272 116.392 18.4722C115.96 18.7233 115.471 18.8486 114.927 18.8486ZM114.927 17.7767C115.224 17.7767 115.5 17.7045 115.754 17.5594C116.009 17.4142 116.213 17.2053 116.365 16.9331C116.517 16.6603 116.593 16.3406 116.593 15.9727C116.593 15.6048 116.517 15.2862 116.364 15.0171C116.222 14.7583 116.011 14.5437 115.754 14.3969C115.503 14.2525 115.217 14.1773 114.927 14.1789C114.63 14.1789 114.354 14.2511 114.099 14.3963C113.844 14.5414 113.642 14.7485 113.489 15.0171C113.337 15.2862 113.26 15.6048 113.26 15.9727C113.26 16.34 113.337 16.6603 113.489 16.9331C113.641 17.2053 113.844 17.4142 114.099 17.5594C114.354 17.7039 114.63 17.7767 114.927 17.7767ZM118.727 13.2666H119.841V13.9772H119.894C120.05 13.7225 120.281 13.5123 120.589 13.3455C120.89 13.181 121.228 13.0953 121.571 13.0962C122.229 13.0962 122.729 13.2889 123.072 13.6743C123.416 14.0603 123.587 14.5859 123.587 15.2507V18.6788H122.42V15.4103C122.42 14.9858 122.315 14.6745 122.107 14.4763C121.898 14.2776 121.61 14.1789 121.242 14.1789C120.98 14.1789 120.746 14.2511 120.542 14.3963C120.336 14.5414 120.177 14.7341 120.063 14.9743C119.95 15.2152 119.894 15.4741 119.894 15.7499V18.6788H118.727V13.266V13.2666ZM129.605 18.7643C129.364 18.7643 129.138 18.7251 128.926 18.6468C128.713 18.5692 128.541 18.4662 128.406 18.3397C128.102 18.0351 127.949 17.6214 127.949 17.0975V14.2957H127.004V13.266H127.95V11.7378H129.117V13.266H130.432V14.2957H129.117V16.8428C129.117 17.133 129.173 17.3384 129.287 17.4582C129.393 17.5997 129.577 17.6708 129.838 17.6708C129.959 17.6708 130.065 17.6545 130.157 17.6226C130.249 17.5913 130.348 17.5395 130.454 17.469V18.6047C130.221 18.7107 129.938 18.7637 129.605 18.7637V18.7643ZM131.6 11.0796H132.768V13.1492L132.715 13.9772H132.768C132.924 13.7225 133.155 13.5123 133.462 13.3455C133.767 13.1801 134.108 13.0944 134.455 13.0962C135.113 13.0962 135.616 13.2889 135.962 13.6743C136.309 14.0603 136.482 14.5859 136.482 15.2507V18.6788H135.315V15.4103C135.315 14.9996 135.206 14.6919 134.991 14.4866C134.775 14.2819 134.494 14.1789 134.147 14.1789C133.886 14.1789 133.65 14.2529 133.441 14.4017C133.23 14.5533 133.06 14.7559 132.948 14.9906C132.827 15.2351 132.768 15.4952 132.768 15.771V18.6794H131.6V11.0796ZM140.282 18.8486C139.751 18.8486 139.275 18.7251 138.855 18.477C138.437 18.2335 138.096 17.8792 137.867 17.4534C137.63 17.018 137.512 16.5279 137.512 15.9829C137.508 15.4827 137.626 14.9891 137.856 14.545C138.077 14.1134 138.408 13.7487 138.817 13.4888C139.227 13.2275 139.695 13.0962 140.218 13.0962C140.763 13.0962 141.236 13.2166 141.635 13.4575C142.035 13.6978 142.339 14.0265 142.548 14.4444C142.756 14.8617 142.861 15.332 142.861 15.8559C142.861 15.9546 142.85 16.0787 142.829 16.2274H138.679C138.721 16.7296 138.901 17.1168 139.215 17.3896C139.518 17.6574 139.909 17.8029 140.314 17.7978C140.646 17.7978 140.934 17.7219 141.178 17.5696C141.423 17.4179 141.619 17.2107 141.767 16.9494L142.755 17.416C142.516 17.8449 142.173 18.2063 141.757 18.4668C141.346 18.7215 140.855 18.8486 140.282 18.8486ZM141.672 15.3356C141.655 15.1352 141.593 14.9412 141.492 14.7678C141.375 14.5704 141.209 14.4074 141.009 14.2957C140.793 14.168 140.529 14.1048 140.218 14.1048C139.843 14.1048 139.526 14.2162 139.268 14.439C139.009 14.6618 138.831 14.9605 138.733 15.3362H141.672V15.3356ZM63.4366 26.5326H66.3028L71.2778 39.7733H68.5224L67.4126 36.6108H62.3455L61.2363 39.7733H58.4809L63.4366 26.5326ZM66.5991 34.3184L65.4339 30.9891L64.9534 29.3994H64.8053L64.3242 30.9891L63.1409 34.3178H66.5991V34.3184ZM72.0004 30.3424H74.2747V31.4889H74.4228C74.6818 31.0819 75.0581 30.7398 75.5507 30.4622C76.0444 30.1853 76.6111 30.0468 77.2523 30.0468C78.1032 30.0468 78.8763 30.2587 79.573 30.6844C80.2697 31.1096 80.8153 31.7045 81.2097 32.4686C81.6041 33.2333 81.8016 34.0962 81.8016 35.0579C81.8016 36.0315 81.6041 36.898 81.2097 37.6561C80.8153 38.4142 80.2697 39.0062 79.573 39.4313C78.8763 39.8564 78.1032 40.0696 77.2523 40.0696C76.6111 40.0696 76.0408 39.9335 75.5422 39.6625C75.0425 39.3915 74.6691 39.0519 74.4228 38.6449H74.2747L74.4228 39.9768V43.7674H72.0004V30.3424ZM76.8272 37.8314C77.2831 37.8314 77.7082 37.7145 78.1032 37.4803C78.4997 37.2439 78.8253 36.9054 79.0462 36.5C79.2804 36.0809 79.3972 35.6004 79.3972 35.0579C79.3972 34.5153 79.2804 34.0342 79.0462 33.6151C78.8267 33.2112 78.5005 32.8754 78.1032 32.6444C77.7159 32.4183 77.2751 32.3002 76.8266 32.3024C76.3828 32.3024 75.9637 32.4168 75.5693 32.6444C75.172 32.8754 74.8458 33.2112 74.6264 33.6151C74.3921 34.0342 74.2747 34.5153 74.2747 35.0579C74.2747 35.5998 74.3921 36.0815 74.6264 36.5C74.8472 36.9054 75.1729 37.2439 75.5693 37.4803C75.9486 37.7102 76.3837 37.8316 76.8272 37.8314ZM82.6536 30.3424H84.9286V31.4889H85.0761C85.335 31.0819 85.7114 30.7398 86.2045 30.4622C86.6971 30.1853 87.2643 30.0468 87.9056 30.0468C88.7564 30.0468 89.5296 30.2587 90.2263 30.6844C90.923 31.1096 91.4685 31.7045 91.8629 32.4686C92.2573 33.2333 92.4548 34.0962 92.4548 35.0579C92.4548 36.0315 92.2573 36.898 91.8629 37.6561C91.4685 38.4142 90.923 39.0062 90.2263 39.4313C89.5296 39.8564 88.7564 40.0696 87.9056 40.0696C87.2643 40.0696 86.6941 39.9335 86.1955 39.6625C85.6957 39.3915 85.3224 39.0519 85.0761 38.6449H84.9286L85.0761 39.9768V43.7674H82.6536V30.3424ZM87.4805 37.8314C87.9363 37.8314 88.3614 37.7145 88.7564 37.4803C89.1529 37.2439 89.4786 36.9054 89.6994 36.5C89.9336 36.0809 90.0504 35.6004 90.0504 35.0579C90.0504 34.5153 89.9336 34.0342 89.6994 33.6151C89.48 33.2112 89.1538 32.8754 88.7564 32.6444C88.3692 32.4183 87.9283 32.3002 87.4799 32.3024C87.0367 32.3024 86.617 32.4168 86.2226 32.6444C85.8252 32.8754 85.499 33.2112 85.2796 33.6151C85.0454 34.0342 84.9286 34.5153 84.9286 35.0579C84.9286 35.5998 85.0454 36.0815 85.2796 36.5C85.5004 36.9054 85.8261 37.2439 86.2226 37.4803C86.6019 37.7102 87.037 37.8316 87.4805 37.8314ZM100.909 40.0689C99.7499 40.0689 98.7268 39.7426 97.8393 39.0893C96.9517 38.4359 96.3291 37.5116 95.9714 36.3151L98.3198 35.3908C98.5052 36.0936 98.8196 36.6542 99.2634 37.0733C99.7071 37.4923 100.262 37.7019 100.928 37.7019C101.482 37.7019 101.957 37.5634 102.351 37.2864C102.746 37.0088 102.943 36.6234 102.943 36.1303C102.943 35.6371 102.755 35.2331 102.379 34.9188C102.003 34.6044 101.334 34.2684 100.373 33.9114L99.5596 33.6151C98.7082 33.3194 97.9814 32.8666 97.3768 32.256C96.7729 31.6461 96.4706 30.8783 96.4706 29.954C96.4706 29.2634 96.6494 28.6347 97.0071 28.0675C97.3648 27.5003 97.87 27.0535 98.5233 26.7271C99.1766 26.4001 99.9167 26.2369 100.743 26.2369C101.939 26.2369 102.882 26.5176 103.572 27.0782C104.262 27.6394 104.737 28.2957 104.996 29.0472L102.795 29.9721C102.662 29.5686 102.414 29.2123 102.083 28.946C101.744 28.669 101.309 28.5299 100.78 28.5299C100.238 28.5299 99.7902 28.6564 99.4392 28.9093C99.0875 29.1622 98.9117 29.4916 98.9117 29.8986C98.9117 30.293 99.0785 30.629 99.4115 30.906C99.7439 31.1836 100.292 31.4516 101.057 31.7105L101.889 31.9875C103.036 32.3825 103.914 32.9034 104.524 33.5507C105.134 34.198 105.44 35.0452 105.44 36.0936C105.44 36.9564 105.218 37.6868 104.774 38.2848C104.336 38.8783 103.745 39.3415 103.064 39.6252C102.383 39.9178 101.65 40.0688 100.909 40.0689ZM110.36 39.9214C109.92 39.9261 109.482 39.8542 109.066 39.7089C108.671 39.5668 108.351 39.3729 108.104 39.126C107.525 38.5714 107.235 37.7826 107.235 36.7595V32.4132H105.59V30.3418H107.235V27.6791H109.658V30.3424H111.969V32.4138H109.657V36.3157C109.657 36.7963 109.762 37.1407 109.972 37.3508C110.145 37.5477 110.44 37.6465 110.86 37.6465C111.094 37.6465 111.288 37.6164 111.442 37.5544C111.65 37.4649 111.851 37.3599 112.043 37.24V39.6065C111.507 39.8174 110.936 39.9243 110.36 39.9214ZM117.407 40.0689C116.434 40.0689 115.565 39.8504 114.8 39.4126C114.051 38.9905 113.434 38.3697 113.016 37.6188C112.59 36.8607 112.378 36.0068 112.378 35.0579C112.378 34.1209 112.59 33.2701 113.016 32.5059C113.432 31.7509 114.049 31.1264 114.8 30.7025C115.565 30.2653 116.434 30.0462 117.407 30.0462C118.369 30.0462 119.232 30.2653 119.997 30.7025C120.747 31.1264 121.365 31.7509 121.781 32.5059C122.206 33.2707 122.419 34.1209 122.419 35.0579C122.419 36.0068 122.206 36.8607 121.781 37.6188C121.363 38.37 120.745 38.991 119.997 39.4132C119.232 39.8504 118.369 40.0696 117.407 40.0696V40.0689ZM117.407 37.8314C117.861 37.8355 118.307 37.7209 118.702 37.499C119.1 37.2732 119.427 36.94 119.645 36.5373C119.88 36.1182 119.997 35.6251 119.997 35.0579C119.997 34.5027 119.879 34.0161 119.645 33.597C119.427 33.1944 119.1 32.8612 118.702 32.6354C118.307 32.4133 117.861 32.2985 117.407 32.3024C116.954 32.2985 116.508 32.4133 116.113 32.6354C115.718 32.857 115.401 33.1773 115.161 33.597C114.92 34.0161 114.8 34.5027 114.8 35.0579C114.8 35.6124 114.92 36.1026 115.161 36.5277C115.401 36.9534 115.718 37.2768 116.113 37.499C116.508 37.7209 116.954 37.8355 117.407 37.8314ZM123.326 30.3424H125.601V31.5997H125.75C125.984 31.1559 126.347 30.7892 126.841 30.4996C127.334 30.2099 127.896 30.0596 128.468 30.0648C128.899 30.0648 129.294 30.1329 129.651 30.2683V32.6908C129.376 32.5858 129.095 32.4963 128.81 32.4228C128.57 32.3659 128.325 32.3378 128.079 32.3391C127.365 32.3391 126.797 32.5981 126.378 33.1159C125.959 33.6338 125.75 34.2871 125.75 35.0765V39.7733H123.327V30.3424H123.326ZM134.331 40.0689C133.394 40.0689 132.55 39.8534 131.798 39.4216C131.056 39.0007 130.445 38.3834 130.032 37.6375C129.607 36.8788 129.394 36.0255 129.394 35.0765C129.388 34.2013 129.604 33.3389 130.023 32.5704C130.429 31.814 131.029 31.1791 131.761 30.7308C132.501 30.2744 133.326 30.0462 134.239 30.0462C135.213 30.0462 136.052 30.2557 136.754 30.6748C137.443 31.0797 138 31.6775 138.354 32.3945C138.717 33.1219 138.899 33.93 138.899 34.8176C138.899 35.1006 138.881 35.3716 138.843 35.6305H131.761C131.884 36.3832 132.184 36.9534 132.658 37.3418C133.133 37.7296 133.703 37.9241 134.368 37.9241C134.923 37.9241 135.401 37.8037 135.801 37.5634C136.197 37.3277 136.526 36.9933 136.754 36.5927L138.714 37.5544C137.753 39.2308 136.291 40.0689 134.331 40.0689ZM136.569 33.9114C136.545 33.6151 136.437 33.3225 136.246 33.0328C136.054 32.7432 135.789 32.5029 135.451 32.3114C135.111 32.1206 134.714 32.0248 134.257 32.0248C133.678 32.0248 133.182 32.1946 132.769 32.5336C132.356 32.8726 132.057 33.3315 131.872 33.9114H136.569Z" fill="#4C4B5E"/>
</svg>
