<svg width="159" height="53" viewBox="0 0 159 53" fill="none" xmlns="http://www.w3.org/2000/svg">
<path fill-rule="evenodd" clip-rule="evenodd" d="M6.12267 0H152.171C154.299 0 155.071 0.221591 155.85 0.63828C156.619 1.04541 157.248 1.67438 157.655 2.44353C158.071 3.22151 158.293 3.99346 158.293 6.12267V46.4126C158.293 48.5418 158.071 49.3137 157.655 50.0917C157.248 50.8608 156.619 51.4898 155.85 51.8969C155.071 52.3136 154.299 52.5352 152.171 52.5352H6.12267C3.99346 52.5352 3.22151 52.3136 2.44353 51.8969C1.67416 51.4899 1.04497 50.8609 0.637677 50.0917C0.222796 49.3137 0 48.5418 0 46.4126V6.12267C0 3.99346 0.221591 3.22151 0.638279 2.44353C1.04531 1.67416 1.6743 1.04497 2.44353 0.637677C3.22151 0.222796 3.99346 0 6.12267 0Z" fill="white"/>
<path d="M20.6736 38.9381C21.2409 39.0374 21.9111 38.9152 22.6276 38.5347L35.1927 31.8616L31.5376 28.2728L20.6736 38.9381ZM19.6361 16.0473C19.3248 16.4965 19.1454 17.115 19.1454 17.8761V36.4151C19.1454 37.1563 19.3152 37.7621 19.6108 38.2077L30.6073 27.1143L19.6361 16.0473ZM35.9568 22.3976L23.3538 15.7216C22.6535 15.3507 21.9972 15.2236 21.4378 15.3085L32.3066 25.981L35.9568 22.3976ZM36.8914 31.3305L40.5416 29.4338C42.5805 28.3758 42.5793 26.6458 40.5392 25.5896L36.8691 23.6886L32.9003 27.4984L36.8914 31.3305ZM62.9609 18.8485C62.2617 18.8544 61.5734 18.6751 60.966 18.3289C60.3651 17.9897 59.8651 17.497 59.5172 16.9012C59.1601 16.296 58.9813 15.6222 58.9813 14.8792C58.9813 14.1367 59.1601 13.4623 59.5172 12.8577C59.8652 12.2621 60.3652 11.7697 60.966 11.4307C61.5733 11.084 62.2616 10.9043 62.9609 10.9098C63.5341 10.9098 64.0688 11.0122 64.5638 11.2181C65.0588 11.4228 65.473 11.7094 65.8054 12.0774L64.9775 12.9053C64.7322 12.6309 64.4299 12.4135 64.0917 12.2682C63.7308 12.1161 63.3423 12.0403 62.9506 12.0454C62.4623 12.0454 62.0059 12.1623 61.5813 12.3959C61.157 12.6292 60.8046 12.9743 60.5625 13.3937C60.3078 13.8254 60.1807 14.3204 60.1807 14.8792C60.1807 15.4386 60.3078 15.9335 60.5625 16.3653C60.8046 16.7847 61.157 17.1297 61.5813 17.363C62.0037 17.5958 62.4787 17.7163 62.9609 17.7129C63.4137 17.7129 63.7924 17.646 64.0965 17.5112C64.3977 17.3788 64.6741 17.196 64.9136 16.9704C65.0696 16.8145 65.2027 16.62 65.3117 16.3864C65.4239 16.1446 65.4974 15.8868 65.5296 15.6222H62.9506V14.5612H66.6545C66.69 14.7593 66.7075 14.9647 66.7075 15.1766C66.7075 15.6577 66.6334 16.1196 66.4847 16.5616C66.3412 16.9957 66.0978 17.39 65.7741 17.7129C65.0588 18.4704 64.1212 18.8485 62.9609 18.8485ZM70.3053 18.8485C69.7748 18.8485 69.2991 18.7251 68.8782 18.477C68.4609 18.2335 68.1191 17.8792 67.8907 17.4534C67.654 17.018 67.5354 16.5279 67.5354 15.9829C67.5316 15.4826 67.65 14.989 67.8804 14.545C68.1005 14.1135 68.4322 13.7488 68.8409 13.4888C69.2509 13.2275 69.7182 13.0962 70.2415 13.0962C70.7864 13.0962 71.2591 13.2166 71.6583 13.4575C72.0582 13.6977 72.3629 14.0265 72.5712 14.4444C72.7801 14.8617 72.8843 15.332 72.8843 15.8559C72.8843 15.9546 72.8741 16.0787 72.8524 16.2274H68.703C68.7451 16.7296 68.924 17.1168 69.2389 17.3895C69.5416 17.6573 69.9331 17.8028 70.3372 17.7978C70.6696 17.7978 70.958 17.7219 71.2025 17.5696C71.4464 17.4178 71.6427 17.2107 71.7914 16.9494L72.7783 17.416C72.5397 17.8448 72.1965 18.2063 71.7806 18.4668C71.3705 18.7215 70.8786 18.8485 70.3053 18.8485ZM71.6963 15.3356C71.6791 15.1352 71.6174 14.9412 71.5156 14.7678C71.3994 14.5703 71.2327 14.4074 71.0327 14.2957C70.8165 14.168 70.5528 14.1048 70.2415 14.1048C69.8669 14.1048 69.5502 14.2162 69.2919 14.439C69.0336 14.6618 68.8547 14.9605 68.756 15.3362H71.6957L71.6963 15.3356ZM76.0047 18.7636C75.7638 18.7636 75.538 18.7251 75.3254 18.6468C75.1135 18.5691 74.9401 18.4662 74.8052 18.3397C74.5011 18.035 74.3487 17.6214 74.3487 17.0975V14.2957H73.4046V13.266H74.3487V11.7377H75.5169V13.266H76.8326V14.2957H75.5163V16.8428C75.5163 17.133 75.5729 17.3384 75.6861 17.4582C75.7927 17.5997 75.9764 17.6707 76.2383 17.6707C76.3587 17.6707 76.4647 17.6545 76.5568 17.6226C76.6484 17.5913 76.7477 17.5395 76.8537 17.469V18.6047C76.6201 18.7107 76.337 18.7636 76.0047 18.7636ZM81.0989 12.4808C80.8797 12.4808 80.6942 12.4049 80.5419 12.2526C80.4678 12.1802 80.4094 12.0935 80.3701 11.9977C80.3309 11.9019 80.3116 11.7991 80.3137 11.6956C80.3137 11.4758 80.3895 11.2904 80.5419 11.138C80.6942 10.9863 80.8797 10.9098 81.0989 10.9098C81.3186 10.9098 81.5041 10.9863 81.6564 11.1386C81.8082 11.2904 81.8847 11.4758 81.8847 11.6956C81.8847 11.9148 81.8082 12.1002 81.6558 12.2526C81.5835 12.3266 81.4968 12.3851 81.401 12.4243C81.3052 12.4636 81.2024 12.4828 81.0989 12.4808ZM80.5148 13.266H81.6829V18.6793H80.5148V13.266ZM85.3019 18.7636C85.061 18.7636 84.8346 18.7251 84.6226 18.6468C84.4101 18.5691 84.2373 18.4662 84.1024 18.3397C83.7983 18.035 83.646 17.6214 83.646 17.0975V14.2957H82.7018V13.266H83.646V11.7377H84.8141V13.266H86.1298V14.2957H84.8135V16.8428C84.8135 17.133 84.8701 17.3384 84.9833 17.4582C85.0893 17.5997 85.2736 17.6707 85.5355 17.6707C85.6559 17.6707 85.7619 17.6545 85.8534 17.6226C85.9456 17.5913 86.0449 17.5395 86.1509 17.469V18.6047C85.9173 18.7107 85.6343 18.7636 85.3019 18.7636ZM92.2639 18.8485C91.719 18.8485 91.2312 18.7233 90.7995 18.4722C90.3739 18.2273 90.0247 17.8689 89.7909 17.4371C89.5506 16.9987 89.4302 16.5098 89.4302 15.9727C89.4302 15.435 89.5506 14.9466 89.7915 14.5076C90.0252 14.0761 90.3742 13.718 90.7995 13.4731C91.2312 13.222 91.719 13.0962 92.2639 13.0962C92.8089 13.0962 93.2972 13.2239 93.729 13.4786C94.1538 13.7264 94.5025 14.0861 94.737 14.5185C94.9778 14.9574 95.0983 15.4416 95.0983 15.9727C95.0983 16.5104 94.9778 16.9987 94.737 17.4371C94.5033 17.8689 94.1544 18.2272 93.729 18.4722C93.2972 18.7233 92.8089 18.8485 92.2639 18.8485ZM92.2639 17.7767C92.5614 17.7767 92.8372 17.7045 93.0919 17.5593C93.3466 17.4142 93.5495 17.2053 93.7019 16.9331C93.8542 16.6603 93.9307 16.3406 93.9307 15.9727C93.9307 15.6048 93.8542 15.2862 93.7019 15.0171C93.5593 14.7582 93.3483 14.5437 93.0919 14.3968C92.84 14.2524 92.5543 14.1772 92.2639 14.1789C91.9671 14.1789 91.6907 14.2511 91.436 14.3962C91.1813 14.5414 90.9783 14.7485 90.826 15.0171C90.6736 15.2862 90.5978 15.6048 90.5978 15.9727C90.5978 16.34 90.6736 16.6603 90.826 16.9331C90.9783 17.2053 91.1813 17.4142 91.436 17.5593C91.6907 17.7039 91.9671 17.7767 92.2639 17.7767ZM96.0635 13.2666H97.1775V13.9771H97.2311C97.3864 13.7224 97.6182 13.5123 97.9259 13.3455C98.2269 13.181 98.5645 13.0953 98.9075 13.0962C99.5656 13.0962 100.067 13.2889 100.41 13.6743C100.753 14.0602 100.925 14.5859 100.925 15.2507V18.6787H99.7565V15.4103C99.7565 14.9857 99.6523 14.6744 99.4434 14.4763C99.235 14.2776 98.9466 14.1789 98.5787 14.1789C98.3173 14.1789 98.0837 14.2511 97.8784 14.3962C97.6737 14.5414 97.5141 14.7341 97.4009 14.9743C97.2877 15.2152 97.2311 15.4741 97.2311 15.7499V18.6787H96.0635V13.266V13.2666ZM58.803 26.532H63.4637C64.3019 26.532 65.066 26.7078 65.7567 27.0595C66.4467 27.4105 66.9893 27.9037 67.3837 28.5384C67.7781 29.1736 67.9756 29.898 67.9756 30.7115C67.9756 31.525 67.7781 32.2524 67.3837 32.8937C66.9916 33.5326 66.4278 34.0484 65.7567 34.3822C65.066 34.7333 64.3019 34.9091 63.4637 34.9091H61.2989V39.7727H58.8024V26.5326L58.803 26.532ZM63.5371 32.5421C64.1537 32.5421 64.6379 32.3632 64.9889 32.0061C65.3406 31.6485 65.5158 31.2173 65.5158 30.7115C65.5158 30.2057 65.3406 29.7776 64.9889 29.4259C64.6379 29.0749 64.1537 28.899 63.5377 28.899H61.2989V32.5421H63.5365H63.5371ZM69.0866 26.5326H71.509V39.7727H69.0866V26.5326ZM75.9306 40.0689C74.9322 40.0689 74.1121 39.7757 73.4714 39.1898C72.8301 38.6045 72.5098 37.8374 72.5098 36.8878C72.5098 36.2591 72.676 35.7045 73.009 35.2234C73.3419 34.7429 73.7978 34.3732 74.377 34.1143C74.9569 33.8553 75.5976 33.7259 76.3003 33.7259C77.2746 33.7259 78.1068 33.8674 78.7968 34.151V33.7439C78.7968 33.2261 78.6029 32.807 78.2146 32.4867C77.8262 32.1663 77.3053 32.0061 76.652 32.0061C76.2082 32.0061 75.7795 32.1073 75.3664 32.3108C74.97 32.5013 74.6199 32.7758 74.3403 33.1153L72.7868 31.8947C73.24 31.3054 73.8304 30.8358 74.5065 30.5267C75.1972 30.2057 75.9493 30.0455 76.7628 30.0455C78.2049 30.0455 79.3026 30.3785 80.0541 31.0445C80.8068 31.7099 81.1825 32.6842 81.1825 33.9661V39.7727H78.7968V38.811H78.6487C78.3657 39.1808 77.9924 39.483 77.5299 39.7173C77.0681 39.9515 76.5345 40.0683 75.9306 40.0683V40.0689ZM76.5038 38.1824C77.2066 38.1824 77.7641 37.9572 78.1778 37.5074C78.5903 37.0576 78.7968 36.5301 78.7968 35.9261C78.1786 35.6326 77.5025 35.481 76.8182 35.4824C75.5609 35.4824 74.9322 35.9508 74.9322 36.8878C74.9322 37.2701 75.0677 37.5814 75.3387 37.8217C75.6096 38.0626 75.9986 38.1824 76.5038 38.1824ZM85.4187 39.3289L81.4433 30.3418H84.1981L86.6392 36.2037H86.7874L89.1358 30.3418H91.8358L86.0106 43.7667H83.4033L85.4187 39.3289ZM99.7541 40.0683C98.5949 40.0683 97.5719 39.742 96.6843 39.0886C95.7961 38.4353 95.1741 37.511 94.8164 36.3145L97.1648 35.3902C97.3497 36.0929 97.6646 36.6535 98.1078 37.0726C98.5516 37.4917 99.1068 37.7013 99.7721 37.7013C100.327 37.7013 100.802 37.5628 101.196 37.2858C101.591 37.0082 101.788 36.6228 101.788 36.1297C101.788 35.6365 101.6 35.2325 101.224 34.9181C100.848 34.6038 100.179 34.2678 99.2176 33.9107L98.4041 33.6145C97.5532 33.3188 96.8264 32.866 96.2219 32.2554C95.6179 31.6454 95.3156 30.8777 95.3156 29.9534C95.3156 29.2627 95.4945 28.6341 95.8515 28.0669C96.2092 27.4996 96.715 27.0528 97.3684 26.7265C98.0217 26.3995 98.7611 26.2363 99.5873 26.2363C100.783 26.2363 101.726 26.5169 102.417 27.0775C103.107 27.6387 103.582 28.2951 103.841 29.0466L101.64 29.9715C101.507 29.568 101.259 29.2117 100.928 28.9454C100.589 28.6684 100.155 28.5293 99.6246 28.5293C99.0821 28.5293 98.6353 28.6558 98.2836 28.9087C97.9326 29.1616 97.7567 29.491 97.7567 29.898C97.7567 30.2924 97.9229 30.6284 98.2559 30.9054C98.5889 31.183 99.1375 31.451 99.9016 31.7099L100.734 31.9869C101.88 32.3819 102.759 32.9027 103.369 33.5501C103.979 34.1974 104.284 35.0446 104.284 36.0929C104.284 36.9558 104.062 37.6862 103.619 38.2842C103.181 38.8775 102.589 39.3408 101.909 39.6245C101.228 39.9171 100.495 40.0681 99.7541 40.0683ZM109.205 39.9208C108.764 39.9255 108.326 39.8536 107.91 39.7082C107.516 39.5661 107.195 39.3722 106.949 39.1254C106.369 38.5708 106.08 37.782 106.08 36.7589V32.4126H104.434V30.3412H106.08V27.6785H108.502V30.3418H110.814V32.4132H108.502V36.3151C108.502 36.7956 108.607 37.1401 108.817 37.3502C108.989 37.5471 109.286 37.6459 109.705 37.6459C109.939 37.6459 110.133 37.6158 110.287 37.5538C110.495 37.4643 110.696 37.3592 110.888 37.2394V39.6059C110.352 39.8168 109.781 39.9236 109.205 39.9208ZM116.252 40.0683C115.279 40.0683 114.41 39.8498 113.645 39.412C112.896 38.99 112.279 38.3692 111.86 37.6182C111.435 36.8601 111.222 36.0062 111.222 35.0572C111.222 34.1203 111.435 33.2694 111.86 32.5053C112.276 31.7502 112.894 31.1257 113.645 30.7019C114.41 30.2647 115.279 30.0455 116.252 30.0455C117.214 30.0455 118.077 30.2647 118.842 30.7019C119.592 31.1258 120.21 31.7503 120.626 32.5053C121.051 33.2701 121.264 34.1203 121.264 35.0572C121.264 36.0062 121.051 36.8601 120.626 37.6182C120.208 38.3694 119.59 38.9904 118.841 39.4126C118.077 39.8498 117.214 40.0689 116.252 40.0689L116.252 40.0683ZM116.252 37.8307C116.706 37.8349 117.152 37.7203 117.547 37.4984C117.945 37.2726 118.272 36.9393 118.49 36.5367C118.724 36.1176 118.841 35.6245 118.841 35.0572C118.841 34.5021 118.724 34.0155 118.49 33.5964C118.272 33.1938 117.945 32.8606 117.547 32.6348C117.152 32.4126 116.706 32.2978 116.252 32.3018C115.799 32.2978 115.353 32.4126 114.958 32.6348C114.563 32.8564 114.246 33.1767 114.006 33.5964C113.765 34.0155 113.644 34.5021 113.644 35.0572C113.644 35.6118 113.765 36.102 114.006 36.5271C114.246 36.9528 114.563 37.2762 114.958 37.4984C115.353 37.7203 115.799 37.8349 116.252 37.8307ZM122.172 30.3418H124.446V31.5991H124.594C124.829 31.1553 125.192 30.7886 125.685 30.499C126.178 30.2091 126.741 30.0589 127.313 30.0642C127.744 30.0642 128.138 30.1322 128.496 30.2677V32.6902C128.221 32.5852 127.94 32.4957 127.655 32.4222C127.415 32.3653 127.17 32.3372 126.924 32.3385C126.209 32.3385 125.642 32.5974 125.223 33.1153C124.804 33.6331 124.594 34.2865 124.594 35.0759V39.7727H122.172V30.3424V30.3418ZM133.176 40.0683C132.239 40.0683 131.395 39.8528 130.643 39.421C129.901 39.0001 129.29 38.3827 128.876 37.6368C128.451 36.8781 128.238 36.0249 128.238 35.0759C128.232 34.2007 128.449 33.3383 128.867 32.5697C129.274 31.8133 129.874 31.1784 130.606 30.7302C131.345 30.2738 132.171 30.0455 133.084 30.0455C134.058 30.0455 134.896 30.2551 135.599 30.6742C136.288 31.0792 136.844 31.677 137.198 32.3939C137.562 33.1213 137.744 33.9294 137.744 34.817C137.744 35.1 137.726 35.371 137.688 35.6299H130.606C130.729 36.3826 131.028 36.9528 131.503 37.3412C131.978 37.729 132.547 37.9235 133.213 37.9235C133.768 37.9235 134.246 37.803 134.646 37.5628C135.042 37.3271 135.371 36.9927 135.599 36.5921L137.559 37.5538C136.597 39.2301 135.136 40.0683 133.176 40.0683ZM135.414 33.9107C135.389 33.6145 135.282 33.3218 135.09 33.0322C134.899 32.7426 134.634 32.5023 134.295 32.3108C133.956 32.1199 133.558 32.0242 133.102 32.0242C132.523 32.0242 132.026 32.194 131.614 32.533C131.201 32.872 130.902 33.3309 130.717 33.9107H135.413H135.414Z" fill="#4C4B5E"/>
</svg>
